<svg width="499" height="657" viewBox="0 0 499 657" fill="none" xmlns="http://www.w3.org/2000/svg">
<rect x="10" y="54.0001" width="436" height="521" rx="40" fill="#FFBD9E"/>
<path d="M201.479 203.577L146.405 55.0732L349.982 148.504L201.479 203.577Z" fill="#FF7237"/>
<path fill-rule="evenodd" clip-rule="evenodd" d="M61.9047 415.673C69.6924 376.036 92.9069 341.116 126.441 318.595L179.559 397.689C167.657 406.574 159.272 419.323 156.084 433.51C152.67 448.706 155.496 464.307 163.942 476.883C172.387 489.458 185.759 497.977 201.117 500.566C215.456 502.983 230.43 500.045 243.157 492.389L296.271 571.477C262.736 593.998 221.629 602.275 181.992 594.487C142.355 586.7 107.436 563.485 84.9148 529.951C62.394 496.417 54.117 455.309 61.9047 415.673Z" fill="#8D81E4"/>
<path d="M413.834 186.111L412.076 366.012L266.185 288.908L413.834 186.111Z" fill="#5275D1"/>
<circle cx="271.16" cy="401.755" r="45.2534" transform="rotate(27.8728 271.16 401.755)" fill="#79DA7E"/>
</svg>
