<svg width="375" height="359" viewBox="0 0 375 359" fill="none" xmlns="http://www.w3.org/2000/svg">
<path fill-rule="evenodd" clip-rule="evenodd" d="M2.20835 232.969C6.26011 212.347 18.3381 194.179 35.7852 182.462L63.4212 223.613C57.2288 228.235 52.8666 234.868 51.208 242.25C49.4316 250.156 50.9021 258.273 55.2959 264.816C59.6898 271.358 66.6472 275.79 74.6376 277.137C82.0979 278.395 89.8882 276.866 96.5098 272.883L124.144 314.031C106.697 325.748 85.3094 330.054 64.6872 326.002C44.065 321.951 25.897 309.873 14.18 292.426C2.46289 274.978 -1.84342 253.591 2.20835 232.969Z" fill="#8D81E4"/>
<circle cx="238.819" cy="114.82" r="23.5443" transform="rotate(27.8728 238.819 114.82)" fill="#8D81E4"/>
<path d="M136 260.845L174.525 188L208.845 299.37L136 260.845Z" fill="#FF7237"/>
<path d="M293.495 27.1114L374.927 73.2668L303.055 120.225L293.495 27.1114Z" fill="#79DA7E"/>
<path d="M172.684 138.691L117.443 236.264L61.1507 150.197L172.684 138.691Z" fill="#FF4A00"/>
</svg>
