<svg width="379" height="379" viewBox="0 0 379 379" fill="none" xmlns="http://www.w3.org/2000/svg">
<mask id="mask0_2_320" style="mask-type:alpha" maskUnits="userSpaceOnUse" x="0" y="0" width="379" height="379">
<rect width="379" height="379" fill="#D9D9D9"/>
</mask>
<g mask="url(#mask0_2_320)">
<path d="M-261.872 235.658C-200.681 207.755 61.1049 55.0819 104.974 34.2254C177.465 -0.283228 233.587 6.09598 225.84 28.0656C252.513 34.6014 251.371 52.3742 245.887 57.6228C260.804 60.1287 278.15 80.7124 258.978 87.0593C274.632 83.5661 311.927 88.8897 344.509 111.681C363.789 125.254 355.536 131.548 345.364 131.675C337.343 131.778 294.716 129.459 264.866 137.625C189.062 158.534 214.961 204.953 274.956 176.179C293.196 167.386 324.578 160.219 336.295 165.281C351.133 171.733 325.12 176.746 296.628 206.979C240.749 266.187 40.6079 353.254 -5.35866 377.292L-261.872 235.658Z" fill="#D9744F"/>
<path d="M258.202 98.4245C241.24 99.295 205.391 106.172 178.918 116.834" stroke="#020302" stroke-width="1.3" stroke-miterlimit="10" stroke-linecap="round" stroke-linejoin="round"/>
<path d="M164.01 82.8312C182.83 74.6492 229.116 65.8017 244.045 68.9802" stroke="#020302" stroke-width="1.3" stroke-miterlimit="10" stroke-linecap="round" stroke-linejoin="round"/>
<path d="M222.969 39.5452C201.775 38.3806 170.699 49.7917 153.991 56.2035" stroke="#020302" stroke-width="1.3" stroke-miterlimit="10" stroke-linecap="round" stroke-linejoin="round"/>
<path d="M161.032 97.8755C163.867 96.6697 166.701 95.464 169.461 94.4374" stroke="#020302" stroke-width="1.3" stroke-miterlimit="10" stroke-linecap="round" stroke-linejoin="round"/>
<path d="M174.573 130.296C177.408 129.09 180.242 127.884 183.002 126.858" stroke="#020302" stroke-width="1.3" stroke-miterlimit="10" stroke-linecap="round" stroke-linejoin="round"/>
<path d="M143.185 69.0916C145.917 67.6518 148.648 66.212 151.38 64.7723" stroke="#020302" stroke-width="1.3" stroke-miterlimit="10" stroke-linecap="round" stroke-linejoin="round"/>
</g>
</svg>
