<svg width="579" height="706" viewBox="0 0 579 706" fill="none" xmlns="http://www.w3.org/2000/svg">
<path fill-rule="evenodd" clip-rule="evenodd" d="M62.2348 465.078C70.0225 425.441 93.2369 390.521 126.771 368L179.889 447.095C167.987 455.979 159.602 468.728 156.414 482.916C153 498.111 155.826 513.713 164.272 526.288C172.717 538.863 186.089 547.382 201.447 549.971C215.786 552.388 230.76 549.45 243.487 541.794L296.601 620.883C263.066 643.403 221.959 651.68 182.322 643.893C142.685 636.105 107.766 612.89 85.2448 579.356C62.724 545.822 54.4471 504.715 62.2348 465.078Z" fill="#8D81E4"/>
<circle cx="517.708" cy="545.529" r="45.2534" transform="rotate(27.8728 517.708 545.529)" fill="#8D81E4"/>
<path d="M312.564 485.83L386.612 345.818L452.576 559.877L312.564 485.83Z" fill="#FF7237"/>
<path d="M299.086 52.1091L455.603 140.822L317.461 231.078L299.086 52.1091Z" fill="#79DA7E"/>
<path d="M313.497 258.508L207.321 446.049L99.124 280.624L313.497 258.508Z" fill="#FF4A00"/>
</svg>
