<svg width="101" height="65" viewBox="0 0 101 65" fill="none" xmlns="http://www.w3.org/2000/svg">
<path d="M97.8456 0.460449V25.0175H89.5811V15.9665H81.9469V25.0175H73.6824V0.460449H81.9469V9.16065H89.5811V0.460449H97.8456Z" fill="black"/>
<path d="M12.0035 48.1414L10.1475 50.2112V56.2803H2.02307V31.7232H10.1475V40.6339L18.2019 31.7232H27.2018L17.3965 42.5283L27.6921 56.2803H18.1319L12.0035 48.1414Z" fill="black"/>
<path d="M60.2565 38.1431H53.0776V31.7232H75.7V38.1431H68.5211V56.2803H60.2565V38.1431Z" fill="black"/>
<path fill-rule="evenodd" clip-rule="evenodd" d="M59.7143 3.66751C62.0625 1.31924 65.2475 0 68.5684 0V7.8328C67.3489 7.89364 66.1924 8.37944 65.3245 9.20161C64.395 10.0822 63.8728 11.2766 63.8728 12.5219C63.8728 13.7673 64.395 14.9616 65.3245 15.8422C66.1924 16.6644 67.3489 17.1502 68.5684 17.211L68.5684 25.0433C65.2475 25.0433 62.0625 23.7241 59.7143 21.3758C57.366 19.0275 56.0468 15.8426 56.0468 12.5216C56.0468 9.2007 57.366 6.01577 59.7143 3.66751Z" fill="#524994"/>
<path d="M14.7136 0.368164L27.456 25.0595H1.97125L14.7136 0.368164Z" fill="#5275D1"/>
<path d="M42.6694 31.6348L55.4118 56.3261H29.9271L42.6694 31.6348Z" fill="#FF4A00"/>
<path d="M85.5228 31.6348L98.2652 56.3261H72.7805L85.5228 31.6348Z" fill="#79DA7E"/>
<path d="M30.7147 25.0137L30.7147 0.552263L55.1761 25.0137L30.7147 25.0137Z" fill="black"/>
<circle cx="46.5321" cy="6.98946" r="6.98897" fill="black"/>
</svg>
