<svg width="535" height="705" viewBox="0 0 535 705" fill="none" xmlns="http://www.w3.org/2000/svg">
<path d="M216.287 218.539L157.166 59.1207L375.705 159.418L216.287 218.539Z" fill="#FF7237"/>
<path fill-rule="evenodd" clip-rule="evenodd" d="M66.4544 446.223C74.8145 403.673 99.7351 366.186 135.734 342.01L192.756 426.918C179.979 436.455 170.978 450.141 167.556 465.371C163.891 481.684 166.925 498.432 175.991 511.931C185.057 525.431 199.412 534.576 215.898 537.355C231.291 539.95 247.365 536.796 261.028 528.577L318.045 613.478C282.046 637.654 237.918 646.54 195.368 638.18C152.818 629.82 115.332 604.899 91.1556 568.9C66.9796 532.901 58.0944 488.773 66.4544 446.223Z" fill="#8D81E4"/>
<path d="M444.249 199.789L442.362 392.912L285.749 310.141L444.249 199.789Z" fill="#5275D1"/>
<circle cx="289.088" cy="431.282" r="48.5793" transform="rotate(27.8728 289.088 431.282)" fill="#79DA7E"/>
</svg>
