<?xml version="1.0" standalone="no"?>
<!DOCTYPE svg PUBLIC "-//W3C//DTD SVG 20010904//EN"
 "http://www.w3.org/TR/2001/REC-SVG-20010904/DTD/svg10.dtd">
<svg version="1.0" xmlns="http://www.w3.org/2000/svg"
 width="260.000000pt" height="260.000000pt" viewBox="0 0 260.000000 260.000000"
 preserveAspectRatio="xMidYMid meet">
<metadata>
Created by potrace 1.14, written by Peter Selinger 2001-2017
</metadata>
<g transform="translate(0.000000,260.000000) scale(0.100000,-0.100000)"
fill="#000000" stroke="none">
<path d="M1150 1921 c0 -6 -6 -11 -14 -11 -18 0 -67 -50 -60 -61 3 -5 1 -9 -5
-9 -5 0 -10 -8 -10 -17 -2 -55 -7 -77 -18 -81 -7 -2 -13 3 -13 12 0 9 -6 15
-12 14 -7 -2 -12 3 -10 10 1 8 -1 11 -6 8 -11 -6 -43 30 -34 39 4 4 0 5 -8 3
-8 -2 -14 3 -12 10 1 8 -1 11 -6 8 -4 -3 -19 8 -32 25 -26 31 -44 36 -56 17
-4 -7 -3 -8 4 -4 16 9 15 -7 0 -22 -9 -9 -9 -12 0 -12 10 0 10 -5 2 -20 -8
-15 -8 -20 2 -20 9 0 9 -3 -2 -10 -9 -6 -10 -10 -3 -10 12 0 12 -37 -1 -58 -4
-7 -2 -12 5 -12 8 0 8 -4 -1 -15 -9 -11 -9 -15 -1 -15 9 0 9 -5 1 -20 -6 -12
-7 -20 -1 -20 10 0 9 -19 -2 -37 -5 -8 -3 -13 4 -13 8 0 8 -4 -1 -15 -9 -11
-9 -15 -1 -15 7 0 9 -5 5 -12 -10 -16 -13 -48 -4 -48 3 0 6 -20 5 -44 0 -24
-3 -42 -7 -39 -5 2 -8 -1 -8 -6 0 -6 6 -11 13 -11 8 0 7 -4 -3 -10 -14 -9 -7
-12 16 -9 4 0 11 -5 15 -13 5 -7 9 -8 9 -2 0 6 7 11 15 11 8 0 15 -3 15 -7 0
-8 37 -5 63 5 10 4 17 3 17 -5 0 -6 5 -8 11 -5 14 10 69 13 69 4 0 -7 37 -4
63 6 10 4 17 3 17 -5 0 -6 5 -8 11 -5 13 9 69 13 69 6 0 -3 21 -5 47 -3 27 2
56 3 66 3 29 0 20 17 -40 76 -32 31 -56 61 -55 67 2 6 0 8 -3 4 -4 -4 -24 10
-45 32 -21 22 -40 36 -44 33 -3 -4 -6 -1 -6 5 0 5 -3 19 -6 29 -4 11 -3 14 3
7 9 -13 93 -14 93 -1 0 5 5 5 10 2 6 -3 10 -1 10 5 0 7 7 9 16 6 8 -3 13 -2
10 2 -3 5 3 16 12 25 26 24 43 47 36 47 -3 0 -2 6 5 13 8 10 7 17 -1 25 -7 7
-8 12 -3 12 6 0 10 11 10 24 0 13 -4 22 -9 18 -5 -3 -7 5 -3 17 3 13 3 20 0
17 -4 -3 -15 8 -25 25 -11 17 -28 33 -38 36 -11 3 -18 9 -15 13 2 4 -25 8 -60
9 -40 1 -65 -2 -65 -8z"/>
<path d="M1610 1918 c0 -6 -7 -8 -15 -4 -8 3 -15 1 -15 -4 0 -6 -7 -10 -15
-10 -8 0 -15 -5 -15 -12 0 -6 -3 -9 -6 -5 -9 9 -44 -25 -37 -36 3 -6 1 -7 -6
-3 -6 4 -14 0 -17 -8 -3 -9 -10 -13 -15 -10 -5 3 -9 2 -8 -3 2 -16 -14 -53
-23 -53 -6 0 -8 -7 -4 -15 3 -8 2 -15 -3 -15 -5 0 -11 -11 -13 -25 -3 -14 -1
-25 4 -25 5 0 6 -6 1 -12 -10 -16 -12 -61 -2 -68 4 -3 9 -18 10 -35 2 -16 7
-32 11 -35 3 -3 8 -12 10 -19 5 -23 92 -108 106 -103 6 2 12 -1 12 -8 0 -6 5
-8 10 -5 6 3 10 1 10 -5 0 -6 5 -8 10 -5 6 3 10 2 10 -3 0 -5 17 -8 38 -7 50
3 52 3 52 16 0 5 -6 7 -12 3 -7 -4 -5 1 4 12 14 16 15 23 6 32 -9 9 -9 15 -1
23 14 14 5 42 -10 32 -6 -4 -7 -1 -1 8 18 30 6 47 -33 47 -3 0 -10 7 -15 16
-5 9 -16 16 -23 16 -17 0 -17 -1 -20 63 -2 26 1 47 5 47 5 0 12 9 15 20 4 11
11 18 16 15 5 -4 12 0 15 9 3 8 14 13 25 11 11 -2 17 0 14 6 -4 5 -1 9 5 9 6
0 8 12 5 31 -3 18 0 38 7 47 11 13 10 15 -5 9 -14 -5 -16 -3 -9 11 4 9 7 26 7
37 0 17 -7 20 -43 21 -23 1 -42 -3 -42 -8z"/>
<path d="M1825 1922 c-6 -4 -17 -16 -25 -26 -13 -18 -13 -19 0 -11 13 8 13 7
1 -8 -10 -13 -10 -17 -1 -17 10 0 10 -3 1 -14 -8 -10 -9 -16 -1 -21 6 -4 7
-12 0 -24 -6 -12 -5 -22 3 -31 9 -10 9 -14 -1 -17 -9 -4 -10 -8 -2 -18 8 -10
8 -15 0 -20 -8 -5 -7 -11 1 -22 10 -11 10 -16 0 -23 -10 -5 -10 -9 -2 -15 9
-5 9 -10 0 -21 -9 -11 -9 -14 1 -14 9 0 10 -3 1 -13 -6 -8 -8 -17 -4 -21 11
-11 10 -46 -1 -46 -7 0 -7 -3 -1 -8 14 -10 17 -32 4 -32 -8 0 -8 -5 1 -15 10
-12 10 -15 0 -15 -10 0 -10 -3 0 -15 8 -10 9 -19 3 -27 -18 -24 -9 -43 20 -42
15 0 27 -3 27 -8 0 -4 12 -3 27 3 20 7 28 6 35 -3 4 -7 8 -8 8 -3 0 6 15 10
33 10 l32 0 1 81 c1 111 2 113 67 112 29 -1 59 2 65 6 7 4 12 2 12 -3 0 -6 6
-11 13 -11 7 0 12 -15 13 -39 0 -22 -3 -38 -6 -36 -4 2 -7 -2 -7 -10 0 -8 4
-12 9 -9 12 8 10 -10 -3 -23 -8 -8 -8 -13 0 -17 8 -5 8 -13 0 -28 -8 -15 -8
-19 0 -14 6 4 11 2 11 -4 0 -6 5 -8 10 -5 6 3 10 1 10 -5 0 -6 5 -8 11 -5 6 4
42 7 80 8 l70 0 -5 44 c-3 32 -1 41 7 36 9 -5 9 -3 1 8 -12 16 -12 29 -1 47 5
6 5 12 0 12 -12 0 -10 244 2 252 6 5 5 8 -2 8 -13 0 -13 26 0 48 5 6 5 12 0
12 -4 0 -8 16 -9 35 -1 41 -11 56 -24 35 -7 -11 -10 -11 -10 -2 0 9 -5 10 -19
2 -14 -7 -22 -7 -26 0 -5 8 -11 8 -20 0 -9 -8 -15 -8 -20 0 -3 5 -11 10 -16
10 -6 0 -7 -6 -3 -12 5 -9 2 -9 -9 1 -16 12 -22 8 -18 -13 1 -5 -4 -6 -11 -3
-8 3 -14 -2 -14 -13 0 -10 4 -16 8 -14 13 8 9 -11 -4 -25 -7 -8 -8 -11 -3 -8
7 3 11 -9 11 -33 0 -21 -4 -36 -9 -33 -5 3 -4 -4 2 -16 10 -18 8 -21 -13 -27
-14 -3 -30 -3 -35 1 -6 3 -11 1 -11 -5 0 -6 -4 -9 -9 -5 -18 11 -71 12 -71 2
0 -8 -3 -8 -11 0 -6 6 -12 53 -14 104 -1 52 -3 96 -4 98 0 2 -7 -2 -15 -8 -10
-9 -16 -9 -21 -1 -4 6 -12 7 -18 2 -14 -10 -27 -10 -44 1 -6 4 -15 3 -18 -3
-5 -7 -11 -8 -19 -1 -6 5 -16 7 -21 3z"/>
<path d="M489 1899 c-10 -6 -11 -9 -1 -9 10 0 10 -3 0 -14 -7 -8 -17 -11 -23
-8 -5 3 -4 -2 4 -11 7 -9 9 -17 3 -17 -5 0 -15 -13 -21 -30 -5 -16 -15 -30
-20 -30 -6 0 -8 -7 -5 -15 4 -8 1 -15 -7 -15 -7 0 -10 -3 -6 -6 3 -4 -1 -13
-9 -21 -8 -8 -12 -19 -9 -24 4 -5 1 -9 -4 -9 -6 0 -11 -7 -11 -15 0 -8 -4 -15
-10 -15 -5 0 -9 -3 -8 -7 1 -5 -3 -18 -10 -29 -6 -12 -8 -24 -5 -28 3 -3 2 -6
-4 -6 -6 0 -16 -13 -22 -30 -5 -16 -15 -30 -20 -30 -6 0 -8 -7 -5 -15 4 -8 1
-15 -6 -15 -6 0 -8 -4 -5 -10 3 -5 1 -10 -4 -10 -6 0 -11 -8 -11 -18 0 -10 -8
-27 -17 -38 -29 -32 -26 -44 7 -40 17 2 30 0 30 -4 0 -8 36 -5 63 5 10 4 17 3
17 -5 0 -6 5 -8 11 -5 14 10 69 13 69 4 0 -7 37 -4 63 6 10 4 17 3 17 -5 0 -6
5 -8 11 -5 14 10 69 13 69 4 0 -7 37 -4 63 6 10 4 17 3 17 -5 0 -6 5 -8 12 -4
7 5 26 7 42 6 37 -3 49 14 27 40 -9 10 -16 24 -16 31 -1 7 -6 11 -13 10 -6 -2
-9 3 -6 11 3 7 -2 20 -10 29 -8 8 -12 17 -9 21 4 3 1 6 -6 6 -8 0 -11 7 -7 15
3 8 1 15 -4 15 -6 0 -10 7 -10 15 0 8 -4 15 -10 15 -5 0 -10 9 -10 20 0 11 -4
20 -10 20 -5 0 -10 8 -10 19 0 10 -7 24 -15 31 -8 7 -13 16 -10 20 3 5 -2 16
-11 24 -8 9 -12 16 -7 16 4 0 4 4 -2 8 -5 4 -21 30 -35 59 -14 28 -28 49 -32
47 -4 -3 -5 4 -3 14 4 23 -26 44 -46 31z"/>
<path d="M285 1240 c-4 -6 -12 -10 -18 -9 -37 4 -37 5 -37 -272 0 -233 2 -270
14 -260 11 9 16 9 22 0 5 -8 3 -9 -6 -4 -9 5 -11 4 -6 -3 5 -9 13 -9 26 -2 20
11 47 9 67 -3 6 -4 15 -2 19 4 5 8 3 9 -6 4 -9 -5 -11 -4 -6 3 9 15 12 15 30
-4 15 -14 16 -13 16 6 0 12 5 18 10 15 6 -3 10 -1 10 4 0 6 -4 11 -8 11 -12 0
-9 43 3 52 6 5 6 8 -2 8 -8 0 -8 9 -1 34 8 27 16 33 33 32 29 -4 45 -14 45
-30 0 -7 8 -22 18 -34 17 -21 37 -47 51 -70 4 -7 20 -14 34 -16 15 -1 30 -6
35 -11 4 -4 1 -5 -7 0 -10 6 -12 4 -7 -4 6 -9 12 -8 26 4 14 12 20 13 26 4 5
-8 3 -10 -6 -4 -9 5 -11 4 -6 -3 5 -8 13 -8 31 0 19 8 28 8 42 -3 14 -12 16
-12 8 0 -6 11 -4 13 7 8 9 -3 21 0 28 6 10 10 11 8 6 -8 -6 -16 -5 -17 5 -8 9
9 9 16 1 26 -7 8 -9 16 -6 20 3 3 -4 8 -15 12 -12 3 -21 12 -21 19 0 7 -9 21
-20 31 -11 10 -18 20 -15 23 2 3 -9 17 -25 32 -16 15 -27 30 -23 33 3 4 -2 9
-11 13 -9 3 -14 10 -11 14 3 4 -2 11 -11 14 -8 3 -13 10 -10 15 3 5 -1 11 -9
15 -8 3 -15 13 -15 21 0 9 -4 13 -10 10 -17 -11 -11 10 10 33 11 12 20 26 20
32 0 5 7 10 16 10 8 0 13 4 9 10 -3 5 7 16 22 24 15 8 24 15 20 16 -4 0 8 16
28 37 19 20 35 40 35 45 0 4 5 7 11 6 6 -2 13 11 16 27 2 20 1 26 -6 16 -5 -7
-14 -10 -20 -7 -6 4 -11 2 -11 -5 0 -7 -7 -4 -16 7 -8 10 -13 13 -9 7 4 -9 -3
-12 -27 -10 -18 2 -39 -1 -47 -7 -11 -8 -13 -8 -7 1 5 9 0 12 -15 10 -24 -2
-69 -38 -69 -55 0 -6 -9 -14 -20 -17 -11 -4 -18 -10 -16 -14 3 -4 -13 -24 -35
-44 -22 -20 -36 -37 -32 -37 12 0 -20 -20 -32 -20 -5 0 -3 5 5 10 8 5 10 10 4
10 -14 0 -13 32 1 42 7 5 7 8 0 8 -6 0 -9 23 -8 54 2 45 -1 55 -16 59 -10 2
-26 0 -36 -6 -13 -7 -16 -6 -10 3 6 9 0 10 -25 5 -23 -5 -30 -4 -26 4 4 6 5
11 2 11 -3 0 -8 -5 -11 -10z"/>
<path d="M1387 1234 c6 -16 5 -17 -9 -6 -21 17 -25 9 -26 -69 l-2 -66 72 1
c47 1 76 -4 85 -12 15 -16 17 -26 3 -17 -14 9 -12 -8 3 -24 6 -8 7 -11 1 -8
-12 7 -11 -64 2 -84 4 -7 3 -9 -3 -6 -12 8 -10 -54 3 -74 4 -7 3 -9 -4 -5 -7
4 -10 -1 -9 -14 1 -11 6 -20 12 -20 5 0 4 -4 -3 -9 -8 -4 -14 -12 -14 -16 0
-4 6 -12 14 -16 8 -6 9 -9 1 -9 -6 0 -10 -8 -8 -17 2 -10 4 -31 4 -47 1 -16 4
-26 8 -23 3 4 13 1 21 -6 13 -9 14 -9 8 1 -4 7 -2 12 6 12 8 0 20 -6 27 -12
11 -10 13 -10 7 0 -4 7 -2 12 6 12 8 0 20 -6 27 -12 11 -10 13 -10 7 0 -5 8 0
12 14 12 14 0 19 -4 14 -12 -5 -8 0 -7 12 2 29 23 34 33 21 49 -12 15 -12 18
5 39 6 6 7 12 2 12 -5 0 -9 15 -9 34 0 19 3 32 8 29 4 -2 7 0 7 6 0 5 -5 13
-10 16 -6 4 -8 11 -5 16 9 14 9 124 0 139 -5 9 -4 11 3 6 7 -4 12 -3 12 3 0 5
-6 12 -12 14 -10 4 -10 6 0 6 7 1 10 6 6 12 -11 19 13 25 86 23 38 -1 68 2 65
6 -3 5 1 11 7 13 10 4 10 8 -1 15 -10 7 -10 11 -1 17 9 6 9 10 -1 16 -12 7
-12 9 0 9 11 0 11 3 0 17 -10 11 -10 14 -1 9 6 -4 12 -4 12 1 0 16 -16 33 -35
36 -11 1 -26 6 -32 10 -9 6 -11 3 -6 -10 6 -16 5 -16 -10 -4 -9 7 -17 10 -17
5 0 -5 -5 -2 -10 6 -5 8 -10 10 -10 4 0 -16 -71 -16 -89 -1 -10 8 -13 9 -8 1
9 -15 -125 -14 -135 1 -5 6 -8 6 -8 -2 0 -15 -89 -14 -108 0 -9 7 -11 5 -5 -9z"/>
<path d="M2061 1228 c0 -10 -6 -18 -12 -18 -5 0 -8 -4 -5 -8 3 -5 -3 -18 -12
-28 -10 -10 -19 -23 -19 -27 -3 -19 -29 -67 -36 -67 -5 0 -6 -4 -3 -9 3 -5 -1
-14 -9 -21 -8 -7 -12 -16 -9 -21 3 -5 -2 -12 -10 -15 -9 -3 -13 -10 -11 -15 3
-5 -1 -19 -10 -32 -8 -13 -12 -27 -8 -32 5 -4 2 -5 -4 -1 -11 6 -18 -6 -11
-16 1 -2 -11 -22 -25 -45 -15 -24 -25 -43 -21 -43 3 0 -4 -12 -15 -26 -11 -15
-18 -30 -15 -35 3 -5 0 -9 -5 -9 -6 0 -11 -7 -11 -16 0 -8 -4 -13 -8 -10 -4 2
-9 -4 -9 -15 -1 -10 4 -19 10 -19 9 0 8 -3 -1 -8 -7 -5 20 -8 62 -8 41 1 72 4
69 9 -6 10 5 9 29 -4 15 -8 19 -8 14 0 -8 12 6 15 18 4 9 -10 66 -11 60 -1 -7
11 3 10 28 -3 15 -8 19 -8 14 0 -8 12 6 15 18 4 9 -10 66 -11 60 -1 -6 10 10
11 20 1 10 -10 46 -11 40 -1 -3 4 5 8 18 8 14 0 18 -3 11 -8 -6 -4 6 -7 27 -7
32 0 40 3 42 20 2 11 -5 29 -14 39 -10 10 -15 23 -12 28 3 4 0 8 -6 8 -7 0 -9
7 -6 16 3 8 2 13 -3 10 -5 -3 -12 1 -15 10 -4 10 -2 13 7 8 6 -4 2 4 -10 18
-13 13 -23 32 -23 41 0 9 -4 17 -10 17 -5 0 -10 9 -10 19 0 11 -5 23 -10 26
-6 4 -7 11 -4 17 4 6 2 8 -4 4 -6 -4 -16 8 -23 29 -7 19 -17 35 -23 35 -5 0
-7 3 -3 6 3 4 -1 13 -9 21 -8 9 -13 21 -10 28 3 8 -2 16 -10 19 -9 3 -12 10
-9 16 3 5 1 10 -5 10 -6 0 -8 5 -5 10 3 6 2 10 -3 10 -9 0 -25 37 -23 53 1 4
-3 7 -8 7 -5 0 -12 8 -14 18 -4 16 -5 16 -6 0z"/>
<path d="M1111 1221 c-7 -5 -12 -11 -12 -15 3 -20 0 -26 -9 -21 -6 3 -7 -1 -4
-9 3 -9 1 -16 -6 -16 -6 0 -8 -4 -5 -10 3 -5 1 -10 -5 -10 -6 0 -9 -4 -5 -9 3
-5 -2 -16 -10 -25 -9 -8 -16 -18 -15 -21 1 -21 -1 -25 -12 -19 -6 4 -8 3 -5
-3 6 -9 -2 -27 -64 -141 -16 -30 -26 -58 -23 -64 4 -6 2 -8 -3 -5 -12 8 -26
-20 -17 -34 3 -5 0 -8 -8 -7 -7 2 -12 -3 -10 -9 1 -7 -3 -13 -9 -13 -5 0 -8
-4 -4 -9 3 -5 0 -15 -7 -23 -7 -7 -14 -18 -14 -23 -1 -6 -4 -21 -8 -35 -3 -14
-3 -19 0 -12 3 6 11 9 17 5 16 -10 67 -11 61 -1 -7 11 3 10 28 -3 15 -8 19 -8
14 0 -8 12 6 15 18 4 9 -10 66 -11 60 -1 -7 11 3 10 28 -3 15 -8 19 -8 14 0
-8 12 6 15 18 4 9 -10 66 -11 60 -1 -8 12 10 10 24 -4 9 -9 12 -9 12 1 0 11 3
11 17 0 11 -10 14 -10 9 -1 -4 6 -3 12 3 12 5 0 12 -4 15 -9 6 -8 77 -6 103 4
6 2 14 -1 17 -8 3 -9 5 -8 5 1 1 7 5 11 10 8 4 -3 6 6 3 19 -2 14 -9 25 -14
25 -5 0 -6 5 -3 10 3 6 -1 17 -9 26 -9 9 -14 20 -11 25 4 5 -1 9 -9 9 -9 0
-16 8 -16 19 0 11 -7 27 -16 35 -8 9 -13 16 -9 16 8 0 -37 84 -47 88 -5 2 -8
12 -8 22 0 9 -7 23 -16 31 -8 7 -13 21 -11 31 3 10 1 16 -4 12 -5 -3 -9 2 -9
10 0 9 -5 16 -11 16 -5 0 -8 4 -4 9 3 5 -2 16 -10 24 -8 9 -15 19 -15 23 0 4
-8 16 -17 27 -13 15 -14 19 -3 13 11 -6 11 -4 -1 6 -9 7 -16 17 -17 21 -1 14
-7 16 -21 8z"/>
</g>
</svg>
